<svg id="Layer_1" data-name="Layer 1" xmlns="http://www.w3.org/2000/svg" width="260.4255" height="257.786" viewBox="0 0 260.4255 257.786"><defs><style>.cls-1{fill:#f26922;}.cls-2{fill:#fcc288;}.cls-10,.cls-2,.cls-3,.cls-4,.cls-7,.cls-8,.cls-9{stroke:#231f20;}.cls-10,.cls-11,.cls-2,.cls-3,.cls-4,.cls-5,.cls-6,.cls-7,.cls-8,.cls-9{stroke-miterlimit:10;}.cls-2,.cls-9{stroke-width:3px;}.cls-11,.cls-3,.cls-4,.cls-5,.cls-6,.cls-9{fill:none;}.cls-3,.cls-4{stroke-width:7px;}.cls-4,.cls-6{stroke-linecap:round;}.cls-5,.cls-6{stroke:#f1f2f2;}.cls-11,.cls-5,.cls-6{stroke-width:4px;}.cls-7{fill:#f1f2f2;}.cls-8{fill:#fff;}.cls-10{fill:#faa832;}.cls-11{stroke:#fff;}</style></defs><circle class="cls-1" cx="129.4439" cy="128.2747" r="123.4042"/><circle class="cls-2" cx="129.4439" cy="128.2747" r="84.6187"/><path class="cls-3" d="M81.081,131.374l93.4558-.4063c5.0512.4214,8.7306,4.1065,8.5151,8.0364-.1835,3.3471-3.1633,6.3409-7.3061,7.1334l-93.193.1354c-4.582.0855-8.5-2.9431-8.8831-6.8625C73.2873,135.4961,76.5537,131.9522,81.081,131.374Z"/><path class="cls-4" d="M77.1388,121.429c3.128-3.49,7.6066-7.3229,12.3785-6.7017,5.5969.7285,7.0261,6.9889,12.3,7.0959,5.7281.1162,7.1473-7.2071,12.93-7.2536,6.1319-.0493,7.839,8.1576,13.7188,7.9632,5.7769-.1911,7.0545-8.21,12.6938-8.2786,5.7391-.07,7.245,8.2011,13.088,8.2786,5.8717.0778,7.869-8.2277,13.8765-8.5151,4.39-.21,8.323,3.9855,11.3534,8.5151"/><path class="cls-3" d="M77.9273,98.88c-2.3175-6.4262,1.81-12.9606,3.7845-16.0841,7.6159-12.0507,20.8394-16.2442,26.314-17.98a65.9567,65.9567,0,0,1,24.7766-2.6767c5.6458.32,13.8068.7823,22.8646,4.8883,12.242,5.55,27.6963,18.4792,25.0722,29.0145-.8951,3.5939-3.7669,6.1951-6.7805,8.042H81.5541A12.8471,12.8471,0,0,1,77.9273,98.88Z"/><path class="cls-5" d="M81.081,131.374l93.4558-.4063c5.0512.4214,8.7306,4.1065,8.5151,8.0364-.1835,3.3471-3.1633,6.3409-7.3061,7.1334l-93.193.1354c-4.582.0855-8.5-2.9431-8.8831-6.8625C73.2873,135.4961,76.5537,131.9522,81.081,131.374Z"/><path class="cls-6" d="M77.1388,121.429c3.128-3.49,7.6066-7.3229,12.3785-6.7017,5.5969.7285,7.0261,6.9889,12.3,7.0959,5.7281.1162,7.1473-7.2071,12.93-7.2536,6.1319-.0493,7.839,8.1576,13.7188,7.9632,5.7769-.1911,7.0545-8.21,12.6938-8.2786,5.7391-.07,7.245,8.2011,13.088,8.2786,5.8717.0778,7.869-8.2277,13.8765-8.5151,4.39-.21,8.323,3.9855,11.3534,8.5151"/><path class="cls-5" d="M77.9273,98.88c-2.3175-6.4262,1.81-12.9606,3.7845-16.0841,7.6159-12.0507,20.8394-16.2442,26.314-17.98a65.9567,65.9567,0,0,1,24.7766-2.6767c5.6458.32,13.8068.7823,22.8646,4.8883,12.242,5.55,27.6963,18.4792,25.0722,29.0145-.8951,3.5939-3.7669,6.1951-6.7805,8.042H81.5541A12.8471,12.8471,0,0,1,77.9273,98.88Z"/><path class="cls-7" d="M69.021,26.0848l8.7178-4.7281,1.7969,3.314L74.1793,27.576l5.6933,10.5,4.6094-2.499,1.8027,3.3256-4.6084,2.4991,3.3428,6.1645L81.6578,49.389Z"/><path class="cls-7" d="M103.9771,34.2259q1.7549,5.283-3.46,7.0293-5.206,1.7292-6.9648-3.5664L88.441,22.3011q-1.755-5.283,3.4511-7.0122,5.2193-1.7337,6.9737,3.5493Zm-8.74-14.1822a1.5386,1.5386,0,0,0-2.1436-1.1816l-.0254.0088q-1.5643.5193-.998,2.2251l5.1113,15.3872q.5669,1.7058,2.1436,1.1816a1.5369,1.5369,0,0,0,1.0234-2.2334Z"/><path class="cls-7" d="M121.5171,31.1819q.7588,5.5152-4.6875,6.2779-5.4345.747-6.1953-4.7813l-2.209-16.063q-.7587-5.5143,4.6768-6.2622,5.4477-.7493,6.2061,4.7656ZM115.52,15.64q-.2431-1.7666-1.8916-1.5537l-.0264.0034q-1.6333.225-1.3887,2.0049l2.209,16.063q.2462,1.78,1.8916,1.5542,1.66-.2285,1.4151-2.0088Z"/><path class="cls-7" d="M129.5582,9.5369l5.8847.2681q5.0889.2454,4.836,5.8061L139.58,30.9583q-.2519,5.5473-5.5849,5.3184l-5.6416-.2569Zm3.6484,3.94-.8623,18.9506,1.6728.0762q1.6612.0762,1.7422-1.7192l.6992-15.3472q.0821-1.8092-1.5781-1.8843Z"/><path class="cls-7" d="M150.6509,11.5359l3.752.7408-5.1367,26.0078-3.752-.7408Z"/><path class="cls-7" d="M164.4136,14.8074,173.77,18.095l-1.2491,3.5567-5.75-2.02L162.816,30.888l4.9463,1.7378-1.2539,3.57-4.9463-1.7383L160.483,37.53l5.749,2.02-1.249,3.5566-9.3575-3.2875Z"/><path class="cls-7" d="M180.5269,26.7825q2.7436-4.8435,7.5176-2.14,4.7841,2.7106,2.041,7.5542l-3.1973,5.643-3.3271-1.8847,3.1973-5.6431a1.5387,1.5387,0,0,0-.5606-2.3828l-.0234-.0132a1.5262,1.5262,0,0,0-2.32.751l-2.211,3.9033q-1.5381,2.7159.5117,6.3613a7.6575,7.6575,0,0,1-.0615,7.3731q-2.751,4.8552-7.5234,2.1513-4.7784-2.7224-2.0342-7.5659l.9189-1.6225,3.3272,1.8847-.919,1.6226a1.6731,1.6731,0,1,0,2.9034,1.645q.9462-1.6692-.9043-5.668a8.2914,8.2914,0,0,1,.414-7.996Z"/><path class="cls-8" d="M55.0464,183.8377l2.4668,2.9214L45.5064,196.8958l2.1533,2.55,12.0059-10.1367,2.4668,2.9219-20.2549,17.1L39.4107,206.41l5.3584-4.5235-2.1533-2.55L37.2584,203.86l-2.4668-2.9214Z"/><path class="cls-8" d="M55.316,214.636l-3.9785,3.7212L48.3726,215.9l19.9522-17.8926,4.0361,3.3447-13.8877,22.919-2.9746-2.4653,2.918-4.6011Zm5.0742-.5327,6.666-10.479L57.9976,212.12Z"/><path class="cls-8" d="M78.7681,221.7312l-.2207-6.67-8.9131,16.4073-3.24-1.7608,12.6533-23.293,2.6475,1.4385.2978,7.9419,6.8252-4.0727,2.6475,1.4384-12.6533,23.293-3.2412-1.7607,8.913-16.4073Z"/><path class="cls-8" d="M96.7632,215.2005l5.6231,1.7539q4.8588,1.5292,3.2012,6.8433l-2.377,7.6225a3.8133,3.8133,0,0,1-3.0977,2.898,3.8115,3.8115,0,0,1,.9014,4.1445q-1.6538,5.3013-6.7529,3.7251l-5.3906-1.6816ZM94.7125,234.615l-1.0694,3.4312,1.5987.4985q1.5864.4951,2.122-1.2207a1.6165,1.6165,0,0,0-.4941-1.9087,3.3128,3.3128,0,0,0-1.0088-.4424Zm4.5781-14.6777-3.4512,11.0664,1.1475.3579a3.6808,3.6808,0,0,0,1.0771.2227A1.64,1.64,0,0,0,99.56,230.282l2.377-7.623q.539-1.7278-1.0469-2.2232Z"/><path class="cls-8" d="M120.5738,242.115q-.6928,5.5233-6.1514,4.8516-5.4419-.6834-4.748-6.22l2.6611-21.1939,3.793.4761-2.66,21.1943q-.2226,1.7827,1.4258,1.99,1.6611.2087,1.8857-1.5742l2.66-21.1944,3.7939.4761Z"/><path class="cls-8" d="M137.8052,239.48l4.3408,7.5058-4.1826.21L134.21,240.35l-.5263.0268.3535,7.0166-3.8184.1919-1.332-26.4746,5.5586-.2793q5.0889-.2424,5.3681,5.3169l.418,8.312A5.0214,5.0214,0,0,1,137.8052,239.48Zm-4.9121-14.81.6074,12.0635.876-.044a3.691,3.691,0,0,0,1.0879-.163,1.64,1.64,0,0,0,.9541-1.7388l-.4248-8.46q-.0907-1.8082-1.751-1.7251Z"/><path class="cls-8" d="M160.3814,238.21q1.2436,5.4257-4.1123,6.6684-5.3468,1.2261-6.5938-4.2124l-3.625-15.8022q-1.245-5.4258,4.1016-6.6524,5.36-1.2289,6.6045,4.1963l1.4531,6.334-3.7275.855-1.4522-6.334q-.4-1.7388-2.0214-1.38l-.0264.0059q-1.607.3684-1.2051,2.12l3.625,15.8022q.4014,1.752,2.0215,1.38a1.5367,1.5367,0,0,0,1.2314-2.126l-.42-1.8305-1.62.3715-.8457-3.687,5.3467-1.2265Z"/><path class="cls-8" d="M179.1763,231.0809q2.1812,5.121-2.872,7.289-5.0465,2.15-7.2334-2.9829l-8.3741-19.6509,3.5176-1.499,8.374,19.6509a1.6733,1.6733,0,1,0,3.07-1.3081l-8.374-19.6509,3.5176-1.499Z"/><path class="cls-8" d="M175.7544,208.7156l8.3331-5.3774,2.0439,3.1675-5.12,3.3042,6.4687,10.0234,4.4053-2.8423,2.0508,3.1782-4.4043,2.8428,1.7656,2.7359,5.1192-3.3042,2.0439,3.1674-8.332,5.377Z"/><path class="cls-8" d="M206.7271,208.6658l8.1309,3.0132-3.0879,2.83-7.2569-2.8794-.3886.356,4.747,5.18-2.8193,2.5835-17.9092-19.5434,4.1035-3.7608q3.7647-3.4306,7.5254.6729l5.6231,6.1357A5.02,5.02,0,0,1,206.7271,208.6658ZM193.5,200.3909l8.16,8.9048.6475-.5933a3.7068,3.7068,0,0,0,.7344-.8188,1.643,1.643,0,0,0-.3741-1.9482l-5.7236-6.2452a1.5377,1.5377,0,0,0-2.4482-.2119Z"/><path class="cls-8" d="M203.7652,192.139q-4.4164-3.3882-1.0772-7.74,3.3473-4.3623,7.7637-.9741l5.1445,3.9478-2.3271,3.0332-5.1455-3.9478a1.5383,1.5383,0,0,0-2.4365.2246l-.0166.0215a1.5264,1.5264,0,0,0,.4218,2.4019l3.5586,2.73q2.4771,1.9,6.3711.375a7.6525,7.6525,0,0,1,7.292,1.0825q4.4283,3.3971,1.0879,7.7486-3.3575,4.355-7.7744.9663l-1.4785-1.1353,2.3271-3.0332,1.48,1.1348a1.6731,1.6731,0,1,0,2.0313-2.6475q-1.5221-1.1682-5.7383.11a8.2889,8.2889,0,0,1-7.86-1.5186Z"/><circle class="cls-9" cx="129.4439" cy="128.2747" r="123.4042"/><polygon class="cls-10" points="231.529 115.773 235.672 124.167 244.936 125.514 238.233 132.048 239.815 141.275 231.529 136.918 223.243 141.275 224.825 132.048 218.122 125.514 227.386 124.167 231.529 115.773"/><polygon class="cls-10" points="25.231 115.773 29.374 124.167 38.638 125.514 31.935 132.048 33.517 141.275 25.231 136.918 16.945 141.275 18.528 132.048 11.824 125.514 21.088 124.167 25.231 115.773"/><polygon class="cls-10" points="220.947 81.263 227.712 87.734 236.877 85.831 232.813 94.264 237.456 102.393 228.18 101.133 221.883 108.061 220.214 98.849 211.68 95.002 219.925 90.568 220.947 81.263"/><path class="cls-3" d="M126.28,182.7421q2.36-.0258,4.9471-.0527c18.0442-.1829,30.482-.1652,38.5824-5.5431,5.4344-3.6079,8.6878-8.8611,9.2857-11.62a19.21,19.21,0,0,0,.3825-3.54,16.8193,16.8193,0,0,0-.5971-4.4631q-22.7548.27-45.8447.3434-3.1392.01-6.2723.0159h3.0893q-3.133-.006-6.2723-.0159-23.0891-.0724-45.8447-.3434a16.8241,16.8241,0,0,0-.597,4.4631,19.2051,19.2051,0,0,0,.3824,3.54c.5979,2.7589,3.8513,8.0121,9.2858,11.62,8.1,5.3779,20.5381,5.36,38.5823,5.5431q2.59.0262,4.9471.0527"/><polygon class="cls-10" points="27.091 151.821 33.855 158.292 43.021 156.389 38.956 164.822 43.599 172.951 34.323 171.691 28.027 178.619 26.358 169.407 17.824 165.56 26.069 161.126 27.091 151.821"/><polygon class="cls-10" points="199.201 52.453 207.77 56.221 215.732 51.297 214.797 60.612 221.94 66.662 212.793 68.652 209.245 77.315 204.527 69.23 195.191 68.533 201.423 61.547 199.201 52.453"/><polygon class="cls-10" points="41.167 71.989 43.39 62.895 37.158 55.909 46.494 55.212 51.212 47.127 54.759 55.79 63.907 57.779 56.764 63.83 57.699 73.145 49.737 68.221 41.167 71.989"/><polygon class="cls-10" points="27.091 105.227 26.069 95.921 17.824 91.488 26.358 87.64 28.027 78.429 34.323 85.356 43.599 84.097 38.956 92.226 43.021 100.659 33.855 98.755 27.091 105.227"/><polygon class="cls-10" points="220.947 175.785 219.925 166.479 211.68 162.046 220.214 158.198 221.883 148.987 228.18 155.914 237.456 154.655 232.813 162.784 236.877 171.217 227.712 169.313 220.947 175.785"/><path class="cls-11" d="M126.2705,182.8013q2.3709-.0259,4.97-.053c18.1289-.1837,30.625-.1659,38.7634-5.5691,5.46-3.6249,8.7286-8.9027,9.3293-11.6745a19.2993,19.2993,0,0,0,.3843-3.5564,16.9028,16.9028,0,0,0-.6-4.484q-22.8616.2709-46.06.345-3.1539.01-6.3017.016H129.86q-3.1479-.006-6.3018-.016-23.1973-.0726-46.06-.345a16.9033,16.9033,0,0,0-.6,4.484,19.2942,19.2942,0,0,0,.3842,3.5564c.6008,2.7718,3.8694,8.05,9.3293,11.6745,8.1384,5.4032,20.6346,5.3854,38.7634,5.5691q2.6019.0264,4.97.053"/></svg>