<svg id="Layer_1" data-name="Layer 1" xmlns="http://www.w3.org/2000/svg" width="250.9149" height="250.9574" viewBox="0 0 250.9149 250.9574"><defs><style>.cls-1{fill:#e6e7e8;stroke:#d1d3d4;}.cls-1,.cls-2,.cls-3,.cls-4,.cls-5,.cls-6,.cls-7,.cls-8{stroke-miterlimit:10;}.cls-2,.cls-3,.cls-4,.cls-7{fill:none;}.cls-2{stroke:#603913;}.cls-2,.cls-3,.cls-4{stroke-width:6px;}.cls-3{stroke:#00a651;}.cls-4{stroke:#c49a6c;}.cls-5{fill:#f1f2f2;}.cls-5,.cls-6,.cls-7,.cls-8{stroke:#231f20;}.cls-6{fill:#fff;}.cls-7{stroke-width:3px;}.cls-8{fill:#ffde17;}</style></defs><circle class="cls-1" cx="125.5958" cy="125.7889" r="123.4042"/><path class="cls-2" d="M77.2329,130.955l93.4558-.4731a8.9059,8.9059,0,0,1,1.2089,17.661l-93.193.1576a8.721,8.721,0,0,1-1.4717-17.3455Z"/><path class="cls-3" d="M73.2907,119.9432c3.128-3.49,7.6065-7.3229,12.3784-6.7018,5.5969.7286,7.0262,6.989,12.3,7.096,5.7281.1162,7.1473-7.2072,12.93-7.2536,6.1319-.0493,7.839,8.1576,13.7188,7.9632,5.7769-.1911,7.0546-8.21,12.6938-8.2786,5.7391-.07,7.2451,8.2011,13.088,8.2786,5.8717.0778,7.869-8.2277,13.8765-8.5151,4.39-.21,8.3231,3.9855,11.3534,8.5151"/><path class="cls-4" d="M77.7059,102.5976h92.4046c3.0136-1.8469,5.8854-4.4481,6.7806-8.0421,2.6241-10.5352-12.83-23.4649-25.0723-29.0144-9.0577-4.106-17.2188-4.5684-22.8646-4.8883A65.9569,65.9569,0,0,0,104.1776,63.33c-5.4746,1.7361-18.698,5.93-26.314,17.98-1.974,3.1235-6.102,9.6579-3.7845,16.0841A12.8478,12.8478,0,0,0,77.7059,102.5976Z"/><path class="cls-4" d="M75.656,161.0469a12.0552,12.0552,0,0,1,2.6806-2.3653H167.43a10.1061,10.1061,0,0,1,6.6228,2.6806l0,0a9.9145,9.9145,0,0,1,2.7431,6.7585c-.0243,4.1093-3.5264,8.2462-8.7352,9.6409l-86.0971.4731c-5.3142-1.5267-8.99-5.5978-9.1459-9.7766C72.677,164.681,75.4314,161.3148,75.656,161.0469Z"/><path class="cls-5" d="M65.1728,23.5992l8.7183-4.728,1.7969,3.3139L70.331,25.09l5.6939,10.5,4.6089-2.499,1.8032,3.3257-4.6084,2.499,3.3428,6.1645L77.81,46.9034Z"/><path class="cls-5" d="M100.1294,31.74q1.7549,5.283-3.46,7.0293-5.206,1.7292-6.9653-3.5664L84.5928,19.8155q-1.755-5.283,3.4511-7.0122,5.2193-1.7337,6.9742,3.5493Zm-8.74-14.1821a1.539,1.539,0,0,0-2.144-1.1817l-.0254.0088q-1.5645.5193-.998,2.2251L93.333,33.9976q.5668,1.7058,2.1436,1.1817a1.5371,1.5371,0,0,0,1.0239-2.2334Z"/><path class="cls-5" d="M117.6694,28.6964q.7581,5.515-4.688,6.2778-5.4345.747-6.1948-4.7813L104.5776,14.13q-.7587-5.5145,4.6763-6.2623,5.4477-.7493,6.2065,4.7657Zm-5.9975-15.542q-.2425-1.7667-1.8911-1.5537l-.0269.0034q-1.6333.2248-1.3882,2.0049l2.209,16.0629q.2454,1.7807,1.8916,1.5542,1.66-.2284,1.415-2.0087Z"/><path class="cls-5" d="M125.71,7.0513l5.8848.2681q5.0889.2454,4.8359,5.8062l-.6992,15.3471q-.2518,5.5475-5.5849,5.3184l-5.6421-.2568Zm3.6485,3.94-.8628,18.9507,1.6733.0761q1.6611.0762,1.7422-1.7192l.6992-15.3472q.0821-1.809-1.5781-1.8842Z"/><path class="cls-5" d="M146.8032,9.05l3.752.7407-5.1368,26.0078-3.7519-.7407Z"/><path class="cls-5" d="M160.5659,12.3219l9.3565,3.2875-1.2491,3.5567-5.75-2.02-3.955,11.2563,4.9462,1.7378-1.2539,3.57-4.9463-1.7382-1.0791,3.0722,5.7491,2.02-1.2491,3.5567-9.3574-3.2876Z"/><path class="cls-5" d="M176.6792,24.2969q2.7436-4.8435,7.5176-2.14,4.7841,2.7107,2.041,7.5542l-3.1973,5.6431L179.7134,33.47l3.1972-5.6431a1.5387,1.5387,0,0,0-.56-2.3828l-.0235-.0132a1.5262,1.5262,0,0,0-2.32.751l-2.2109,3.9033q-1.5381,2.7159.5117,6.3614a7.6573,7.6573,0,0,1-.0615,7.373q-2.751,4.8552-7.5234,2.1514-4.7784-2.7225-2.0342-7.5659l.9189-1.6226,3.3272,1.8848-.919,1.6225a1.6731,1.6731,0,1,0,2.9033,1.645q.9463-1.6691-.9043-5.6679a8.2917,8.2917,0,0,1,.4141-7.9961Z"/><path class="cls-6" d="M51.1982,181.3521l2.4668,2.9214L41.6587,194.41l2.1528,2.55,12.0064-10.1367,2.4663,2.9219-20.2544,17.1-2.4668-2.9214,5.3579-4.5234-2.1528-2.55-5.358,4.5234-2.4668-2.9214Z"/><path class="cls-6" d="M51.4683,212.1505l-3.9791,3.7212-2.9648-2.4571L64.4766,195.522l4.0361,3.3448L54.6255,221.7857,51.65,219.32l2.9179-4.6011Zm5.0742-.5328,6.666-10.479-9.0591,8.4961Z"/><path class="cls-6" d="M74.92,219.2457l-.2207-6.67L65.7866,228.983l-3.2407-1.7608,12.6533-23.2929,2.6475,1.4384.2983,7.9419,6.8247-4.0727,2.6475,1.4385L74.9639,233.9683l-3.2413-1.7607L80.6357,215.8Z"/><path class="cls-6" d="M92.915,212.7149l5.6236,1.7539q4.858,1.5294,3.2011,6.8433l-2.3774,7.6225a3.8126,3.8126,0,0,1-3.0977,2.898,3.8116,3.8116,0,0,1,.9014,4.1445q-1.6537,5.3013-6.7524,3.7251l-5.3911-1.6816Zm-2.05,19.4146-1.07,3.4311,1.5991.4986q1.5864.495,2.1216-1.2207a1.6158,1.6158,0,0,0-.4941-1.9087,3.3042,3.3042,0,0,0-1.0088-.4424Zm4.5782-14.6778-3.4517,11.0664,1.1479.3579a3.6721,3.6721,0,0,0,1.0772.2227,1.64,1.64,0,0,0,1.4956-1.3022l2.3774-7.6231q.5391-1.7277-1.0473-2.2231Z"/><path class="cls-6" d="M116.7256,239.63q-.6929,5.5231-6.1509,4.8515-5.4426-.6832-4.7481-6.22l2.6607-21.1938,3.7935.476-2.66,21.1944q-.2233,1.7826,1.4253,1.99,1.6619.2088,1.8857-1.5742l2.66-21.1943,3.7939.476Z"/><path class="cls-6" d="M133.9575,236.9942l4.3408,7.5059-4.1826.21-3.7539-6.8457-.5264.0269.3536,7.0166L126.37,245.1l-1.332-26.4746,5.5591-.2793q5.0888-.2426,5.3681,5.3169l.418,8.312A5.0213,5.0213,0,0,1,133.9575,236.9942Zm-4.9121-14.81.6069,12.0635.8765-.0439a3.6942,3.6942,0,0,0,1.0879-.1631,1.64,1.64,0,0,0,.9541-1.7388l-.4248-8.46q-.0909-1.8084-1.751-1.7251Z"/><path class="cls-6" d="M156.5337,235.7247q1.2436,5.4258-4.1123,6.6684-5.3468,1.2261-6.5938-4.2124l-3.625-15.8022q-1.2451-5.4258,4.1016-6.6524,5.36-1.2289,6.6045,4.1963l1.4531,6.334-3.7275.855-1.4522-6.334q-.4-1.7388-2.0215-1.38l-.0263.0059q-1.607.3684-1.2051,2.12l3.625,15.8023q.4014,1.7519,2.0215,1.38a1.5367,1.5367,0,0,0,1.2314-2.1259l-.42-1.8306-1.62.3716-.8457-3.687,5.3467-1.2266Z"/><path class="cls-6" d="M175.3286,228.5953q2.1812,5.1212-2.8721,7.2891-5.0463,2.15-7.2334-2.983l-8.374-19.6508,3.5176-1.4991,8.374,19.6509a1.6733,1.6733,0,1,0,3.07-1.3081l-8.374-19.6509,3.5176-1.499Z"/><path class="cls-6" d="M171.9067,206.23l8.333-5.3775,2.044,3.1675-5.12,3.3042,6.4687,10.0234,4.4053-2.8423,2.0508,3.1783-4.4043,2.8427,1.7656,2.7359,5.1191-3.3042,2.044,3.1675-8.332,5.3769Z"/><path class="cls-6" d="M202.8794,206.18l8.1308,3.0132-3.0878,2.83-7.2569-2.8794-.3887.356,4.7471,5.18-2.8193,2.5835-17.9092-19.5435,4.1035-3.7607q3.7647-3.4306,7.5254.6728l5.6231,6.1358A5.0193,5.0193,0,0,1,202.8794,206.18Zm-13.2276-8.2749,8.16,8.9048.6475-.5932a3.705,3.705,0,0,0,.7343-.8189,1.6429,1.6429,0,0,0-.374-1.9482l-5.7236-6.2451a1.5377,1.5377,0,0,0-2.4483-.212Z"/><path class="cls-6" d="M199.9175,189.6534q-4.4166-3.3882-1.0772-7.74,3.3472-4.3623,7.7637-.9742l5.1445,3.9478-2.3271,3.0332-5.1455-3.9478a1.5384,1.5384,0,0,0-2.4366.2247l-.0166.0214a1.5264,1.5264,0,0,0,.4219,2.4019l3.5586,2.73q2.4771,1.9,6.3711.375a7.6523,7.6523,0,0,1,7.292,1.0825q4.4282,3.3969,1.0879,7.7485-3.3574,4.355-7.7744.9663l-1.4785-1.1352,2.3271-3.0332,1.48,1.1347a1.673,1.673,0,1,0,2.0312-2.6474q-1.5219-1.1682-5.7382.11a8.2888,8.2888,0,0,1-7.86-1.5185Z"/><circle class="cls-7" cx="125.5958" cy="125.7889" r="84.6187"/><circle class="cls-7" cx="125.5958" cy="125.7889" r="123.4042"/><polygon class="cls-8" points="227.681 113.287 231.824 121.682 241.088 123.028 234.384 129.562 235.967 138.789 227.681 134.433 219.395 138.789 220.977 129.562 214.274 123.028 223.538 121.682 227.681 113.287"/><polygon class="cls-8" points="21.383 113.287 25.526 121.682 34.79 123.028 28.087 129.562 29.669 138.789 21.383 134.433 13.097 138.789 14.679 129.562 7.976 123.028 17.24 121.682 21.383 113.287"/><polygon class="cls-8" points="217.099 78.777 223.863 85.248 233.029 83.345 228.965 91.778 233.608 99.907 224.331 98.647 218.035 105.575 216.366 96.363 207.832 92.516 216.077 88.082 217.099 78.777"/><polygon class="cls-8" points="23.243 149.335 30.007 155.806 39.173 153.903 35.108 162.336 39.751 170.465 30.475 169.205 24.178 176.133 22.51 166.921 13.975 163.074 22.221 158.64 23.243 149.335"/><polygon class="cls-8" points="195.352 49.967 203.922 53.735 211.884 48.811 210.949 58.126 218.092 64.177 208.945 66.166 205.397 74.829 200.679 66.744 191.343 66.047 197.575 59.061 195.352 49.967"/><polygon class="cls-8" points="37.319 69.503 39.541 60.409 33.31 53.423 42.645 52.726 47.364 44.641 50.911 53.304 60.059 55.293 52.916 61.344 53.851 70.659 45.889 65.735 37.319 69.503"/><polygon class="cls-8" points="23.243 102.741 22.221 93.435 13.975 89.002 22.51 85.154 24.178 75.943 30.475 82.87 39.751 81.611 35.108 89.74 39.173 98.173 30.007 96.269 23.243 102.741"/><polygon class="cls-8" points="217.099 173.299 216.077 163.993 207.832 159.56 216.366 155.712 218.035 146.501 224.331 153.428 233.608 152.169 228.965 160.298 233.029 168.731 223.863 166.827 217.099 173.299"/></svg>